<?xml version="1.0" encoding="UTF-8"?>
<svg width="507px" height="180px" viewBox="0 0 507 180" version="1.1" xmlns="http://www.w3.org/2000/svg" xmlns:xlink="http://www.w3.org/1999/xlink">
    <title>LeanIX-Logo-Primary-RGB@3x</title>
    <defs>
        <ellipse id="path-1" cx="42.6259144" cy="42.2916667" rx="42.6259144" ry="42.2916667"></ellipse>
        <filter x="-31.1%" y="-31.4%" width="162.2%" height="162.7%" filterUnits="objectBoundingBox" id="filter-3">
            <feGaussianBlur stdDeviation="9.09673832" in="SourceGraphic"></feGaussianBlur>
        </filter>
    </defs>
    <g id="LeanIX-Logo-Primary-RGB" stroke="none" stroke-width="1" fill="none" fill-rule="evenodd">
        <g id="Group-2" transform="translate(51.000000, 47.000000)">
            <g id="Group">
                <g id="Rectangle-Copy-5" transform="translate(43.843798, 1.208333)">
                    <mask id="mask-2" fill="white">
                        <use xlink:href="#path-1"></use>
                    </mask>
                    <use id="Mask" fill="#166BFF" xlink:href="#path-1"></use>
                    <polygon id="Rectangle-Copy-2" fill-opacity="0.65" fill="#003399" filter="url(#filter-3)" mask="url(#mask-2)" points="-29.8381399 50.75 14.0056578 7.25 57.8494554 50.75 14.0056578 94.25"></polygon>
                </g>
                <polygon id="Rectangle-Copy-6" fill="#166BFF" points="0 43.5 43.8437976 0 87.6875953 43.5 43.8437976 87"></polygon>
                <path d="M56.7286495,13.2911624 L87.6875953,43.5 L56.7286495,73.7088376 C48.7801441,66.0488755 43.8437976,55.3447365 43.8437976,43.5 C43.8437976,31.6552635 48.7801441,20.9511245 56.7286495,13.2911624 Z" id="Combined-Shape-Copy-4" fill="#FFFFFF"></path>
            </g>
            <path d="M164.82209,68.0517928 L164.82209,18 L176.190648,18 L176.190648,57.3505976 L201.393235,57.3505976 L201.393235,68.0517928 L164.82209,68.0517928 Z M243.169261,48.6135458 C243.169261,50.1035857 243.032291,51.5936255 242.826835,53.0836653 L215.227263,53.0836653 C216.391513,57.1474104 219.610322,60.059761 225.431571,60.059761 C229.472204,60.059761 234.129203,58.501992 237.142556,56.4701195 L241.388644,63.7171315 C237.758924,66.4262948 231.937674,68.8645418 224.952174,68.8645418 C210.91269,68.8645418 204.406588,59.5179283 204.406588,49.4262948 C204.406588,38.3864542 212.282396,29.9880478 224.198836,29.9880478 C234.951027,29.9880478 243.169261,36.8286853 243.169261,48.6135458 Z M224.198836,38.5896414 C219.815778,38.5896414 216.391513,41.1633466 215.158778,45.498008 L232.827983,45.498008 C231.869189,41.2988048 228.718865,38.5896414 224.198836,38.5896414 Z M277.685847,30.936255 L287.82167,30.936255 L287.82167,68.0517928 L277.685847,68.0517928 L277.685847,64.2589641 C274.946436,66.9681275 271.24823,69 266.111833,69 C255.291158,69 247.620805,60.3306773 247.620805,49.2908367 C247.620805,38.1832669 255.496613,29.9880478 266.111833,29.9880478 C271.179745,29.9880478 274.946436,32.0876494 277.685847,34.8645418 L277.685847,30.936255 Z M267.960936,59.314741 C273.645215,59.314741 277.685847,54.7768924 277.685847,49.4262948 C277.685847,44.1434263 273.645215,39.6733068 267.960936,39.6733068 C262.276657,39.6733068 258.372996,44.1434263 258.372996,49.4262948 C258.372996,54.8446215 262.345142,59.314741 267.960936,59.314741 Z M296.10839,68.0517928 L296.10839,30.936255 L306.586639,30.936255 L306.586639,36.0836653 C308.435742,32.7649402 312.750315,29.9203187 318.434594,29.9203187 C325.899491,29.9203187 333.021961,34.8645418 333.021961,45.3625498 L333.021961,68.0517928 L322.269771,68.0517928 L322.269771,48.1394422 C322.269771,42.6533865 319.324903,39.6733068 314.941845,39.6733068 C310.147874,39.6733068 306.86058,43.1952191 306.86058,48.4103586 L306.86058,68.0517928 L296.10839,68.0517928 Z M341.993534,18 L353.362092,18 L353.362092,68.0517928 L341.993534,68.0517928 L341.993534,18 Z M358.9094,68.0517928 L374.866473,42.7888446 L360.07365,18 L373.15434,18 L382.194399,34.3227092 L391.782339,18 L405,18 L389.316869,42.7888446 L404.863029,68.0517928 L391.782339,68.0517928 L382.057428,51.2549801 L372.127061,68.0517928 L358.9094,68.0517928 Z" id="LeanIX" fill="#222F4B" fill-rule="nonzero"></path>
        </g>
    </g>
</svg>